<?xml version="1.0" encoding="utf-8"?>
<?xml-stylesheet type="text/css" href="../style.css" ?>
<!-- Generator: Adobe Illustrator 21.0.2, SVG Export Plug-In . SVG Version: 6.00 Build 0)  -->
<svg version="1.1" id="Layer_1" xmlns="http://www.w3.org/2000/svg" xmlns:xlink="http://www.w3.org/1999/xlink" x="0px" y="0px"
	 width="300px" height="300px" viewBox="0 0 300 300" style="enable-background:new 0 0 300 300;" xml:space="preserve">

<g>
	<g>
		<path class="st0" d="M117.2,182.9c0.7,4.2,1.6,8.3,2.5,12.1h60.6c0.9-3.8,1.8-7.8,2.5-12.1H117.2z"/>
		<path class="st0" d="M184.1,173.8c0.7-6.7,1.2-13.9,1.2-21.7c0-74.1-35.2-97.8-35.2-97.8s-35.2,26.8-35.2,97.8
			c0,7.8,0.4,15,1.2,21.7H184.1z"/>
		<path class="st0" d="M173.4,216.1c1.6-3.7,3.1-7.7,4.5-12.1h-55.5c1.4,4.4,2.9,8.4,4.5,12.1H173.4z"/>
		<path class="st0" d="M131.2,225.2c9.2,17.2,18.8,24.7,18.8,24.7s9.8-7.3,19-24.7H131.2z"/>
	</g>
	<g>
		<path class="st0" d="M177.5,204c-1.5,4.3-2.7,8.3-3.5,12.1h71.8c4-3.6,8-7.6,12-12.1H177.5z"/>
		<path class="st0" d="M279.5,173.8c20.2-36.6,13.6-63.4,13.6-63.4s-41.4-5.7-87.1,46.6c-5,5.7-9.3,11.3-13,16.8H279.5z"/>
		<path class="st0" d="M172.3,225.2c-2,14.5,0.3,23.3,0.3,23.3s28.4,2,62.2-23.3H172.3z"/>
		<path class="st0" d="M187.4,182.9c-2.4,4.1-4.4,8.2-6.2,12.1h84.2c3.2-4.1,6.1-8.1,8.7-12.1H187.4z"/>
	</g>
	<g>
		<path class="st0" d="M122.5,204H42.3c4,4.4,8,8.4,12,12.1H126C125.2,212.3,124,208.3,122.5,204z"/>
		<path class="st0" d="M106.9,173.8c-3.7-5.4-8-11-13-16.8c-45.7-52.3-87.1-46.6-87.1-46.6s-6.7,26.8,13.6,63.4H106.9z"/>
		<path class="st0" d="M65.3,225.2c33.8,25.3,62.2,23.3,62.2,23.3s2.3-8.8,0.3-23.3H65.3z"/>
		<path class="st0" d="M25.9,182.9c2.6,3.9,5.4,8,8.7,12.1h84.2c-1.7-3.9-3.8-7.9-6.2-12.1H25.9z"/>
	</g>
</g>
</svg>
